<svg width="94" height="100" viewBox="0 0 94 100" fill="none" xmlns="http://www.w3.org/2000/svg">
<g clip-path="url(#clip0_3429_1008)">
<path d="M44.3536 0H49.8695C50.0434 0.0381369 50.2211 0.0563096 50.3992 0.0541659C51.0072 0.064814 51.6149 0.0717599 52.2225 0.0875007C52.741 0.10139 53.2596 0.125 53.7777 0.144444C53.9999 0.153241 54.2225 0.162036 54.4442 0.172684L56.7986 0.287501C56.8427 0.287501 56.8872 0.293981 56.9317 0.297221C57.5672 0.343518 58.2028 0.389814 58.8385 0.43611C59.3852 0.474999 59.9321 0.513734 60.4791 0.552314C60.5385 0.556481 60.5969 0.566203 60.6558 0.571758L62.1614 0.710647C62.589 0.749999 63.0172 0.787038 63.4448 0.831019C63.8423 0.872223 64.2393 0.923612 64.6368 0.96713C65.27 1.03704 65.9036 1.10324 66.5385 1.17454C66.8168 1.20602 67.0951 1.24491 67.3762 1.28194C67.7139 1.32824 68.0511 1.37454 68.3888 1.42083C68.9171 1.49167 69.4463 1.55972 69.9741 1.6338C70.4727 1.70509 70.9695 1.78611 71.4672 1.86158C71.9357 1.93287 72.4051 1.99768 72.8726 2.07454C73.4862 2.17546 74.0985 2.28426 74.7112 2.3912C75.4533 2.5213 76.1996 2.64583 76.9418 2.78565C77.7706 2.94259 78.5962 3.1162 79.4242 3.2787C80.7317 3.53472 82.0323 3.82268 83.3305 4.11991C84.9892 4.49923 86.6412 4.90648 88.2866 5.34167C88.9021 5.5037 89.5185 5.66574 90.1266 5.84815C91.5955 6.29444 92.6312 7.45463 92.9095 8.95787C92.9851 9.36481 93.0459 9.775 93.1034 10.1852C93.2078 10.9319 93.3047 11.6801 93.404 12.4278C93.5057 13.1907 93.5894 13.9554 93.6549 14.7218C93.6943 15.1787 93.7402 15.6352 93.7746 16.0926C93.8279 16.8005 93.8924 17.5079 93.9063 18.2185C93.9184 18.8546 93.9276 19.4912 93.9392 20.1273C93.9416 20.2606 93.9286 20.3986 93.9601 20.5255C94.0037 20.7014 93.9972 20.8755 94.0005 21.0519V24.0713C94.0102 24.2894 93.9675 24.5046 93.9573 24.7194C93.9341 25.2125 93.9411 25.7074 93.9355 26.2009C93.9276 26.3634 93.9114 26.525 93.9123 26.688C93.916 27.4287 93.8381 28.1657 93.7936 28.9042C93.7625 29.4208 93.7055 29.9361 93.6544 30.4514C93.5863 31.1431 93.5227 31.8361 93.4383 32.5259C93.3455 33.2894 93.2291 34.05 93.1252 34.812C92.9912 35.7944 92.8228 36.7713 92.641 37.7449C92.3664 39.2134 92.0538 40.6739 91.7031 42.1264C90.9198 45.3612 89.9453 48.5468 88.7847 51.6667C86.5187 57.7633 83.6132 63.5404 80.068 68.9981C76.3161 74.8037 71.9579 80.119 67.0562 84.9921C62.1881 89.8319 56.8971 94.1556 51.183 97.963C50.5309 98.3995 49.8718 98.8259 49.2136 99.2532C48.7688 99.5498 48.2664 99.7497 47.7391 99.8398C47.6222 99.8601 47.5068 99.888 47.3935 99.9231C47.3548 99.942 47.3197 99.9674 47.2896 99.9981H46.7558C46.738 99.9747 46.7157 99.9549 46.6902 99.9401C46.6648 99.9252 46.6366 99.9155 46.6074 99.9116C46.4047 99.868 46.2006 99.8301 46.0002 99.7787C45.5572 99.6581 45.1365 99.4671 44.7544 99.213C42.8963 98.0222 41.0756 96.777 39.2923 95.4773C33.603 91.3264 28.3589 86.6782 23.6103 81.4769C19.2438 76.6944 15.3875 71.5338 12.0869 65.9625C9.23791 61.1643 6.8494 56.1082 4.95321 50.8616C3.86064 47.8288 2.94277 44.7361 2.20409 41.5986C1.90539 40.3332 1.63792 39.06 1.40168 37.7792C1.21939 36.7907 1.05241 35.7991 0.908622 34.8037C0.783852 33.9403 0.66048 33.0769 0.566786 32.2111C0.531999 31.887 0.493963 31.563 0.460104 31.2389C0.413721 30.7829 0.360844 30.3273 0.320955 29.8704C0.274572 29.3102 0.238387 28.7491 0.198034 28.1889C0.118719 27.0968 0.0588885 26.0037 0.0394077 24.9088C0.0356971 24.6722 0.0319833 24.4352 0.024562 24.1986C0.0222429 24.1255 0.00787277 24.0528 -0.00140381 23.9796C0.00416214 23.8472 0.0134306 23.7144 0.0134306 23.5819C0.0134306 23.0639 0.00230682 22.5463 0.0101919 22.0287C0.0250344 21.0519 0.0329159 20.0745 0.076052 19.0991C0.126609 17.9606 0.183195 16.8222 0.294514 15.688C0.369654 14.9222 0.433668 14.1556 0.508808 13.3894C0.537101 13.0949 0.573743 12.8014 0.612241 12.5097C0.685526 11.9542 0.758806 11.3949 0.839512 10.8389C0.932278 10.2093 1.01855 9.57917 1.12755 8.95278C1.22888 8.36735 1.46359 7.81297 1.81355 7.33241C2.37293 6.55787 3.12201 6.0537 4.03715 5.79954C4.84977 5.57361 5.66704 5.36435 6.48338 5.15139C8.00103 4.7554 9.52533 4.38503 11.0563 4.04028C12.0813 3.80911 13.1086 3.58735 14.1379 3.375C15.08 3.17963 16.0253 2.99815 16.9701 2.81574C17.6969 2.67685 18.4242 2.53796 19.1538 2.41111C19.9423 2.275 20.7308 2.15093 21.5193 2.02593C22.3969 1.88704 23.2745 1.74491 24.1539 1.61806C24.9159 1.50787 25.6813 1.41713 26.4452 1.31805L27.2824 1.21019C27.6354 1.16389 27.9879 1.11759 28.3408 1.07685C28.7087 1.03472 29.0779 1.00139 29.4462 0.962499C29.7708 0.928703 30.0955 0.89213 30.4202 0.857408C30.8478 0.811112 31.2746 0.762036 31.7022 0.722221C32.1744 0.67824 32.648 0.649073 33.1201 0.603703C33.8433 0.534258 34.5668 0.471298 35.2923 0.432409C35.366 0.428242 35.4398 0.419908 35.514 0.414816C36.1633 0.36852 36.8127 0.314816 37.4658 0.279168C38.3243 0.232872 39.1819 0.198147 40.0423 0.158333C40.1309 0.154166 40.22 0.14676 40.3086 0.143057C40.7529 0.125001 41.1973 0.10324 41.6421 0.0921292C42.1309 0.0796292 42.6208 0.0787037 43.1096 0.0694444C43.5261 0.0592593 43.9413 0.0537037 44.3536 0ZM47.0568 7.96296C45.7627 7.97685 44.5025 7.98843 43.2423 8.00417C42.9176 8.00833 42.5901 8.02037 42.2645 8.03426C41.2277 8.07716 40.1909 8.1216 39.1541 8.16759H39.1077C38.3965 8.20555 37.6853 8.24383 36.9741 8.28241C36.9152 8.28565 36.8563 8.29352 36.7969 8.29815C36.1912 8.34352 35.5852 8.38904 34.9792 8.43472C34.4768 8.47315 33.9745 8.51065 33.4722 8.55231C33.1327 8.58009 32.7931 8.6125 32.4541 8.64491C32.0269 8.68796 31.5997 8.7375 31.1725 8.78102C30.7746 8.82176 30.3757 8.85602 29.9782 8.89815C29.6688 8.93102 29.3599 8.97083 29.0505 9.0088C28.6832 9.05509 28.3158 9.10139 27.948 9.14445C27.6233 9.18426 27.2986 9.21898 26.9777 9.26296C26.4345 9.33704 25.8923 9.41713 25.3501 9.49444C24.8515 9.56528 24.3519 9.62917 23.8542 9.70602C23.1956 9.80787 22.5388 9.91898 21.8811 10.0273C21.2823 10.1264 20.6821 10.219 20.0852 10.3278C19.2113 10.487 18.3387 10.6526 17.4673 10.8245C16.3926 11.037 15.3175 11.2468 14.2474 11.4819C12.99 11.7597 11.7376 12.0565 10.4844 12.3514C9.95143 12.4764 9.42174 12.6157 8.89205 12.7523C8.63184 12.8194 8.60911 12.7931 8.57757 13.0935C8.51727 13.6671 8.44213 14.2394 8.38601 14.8134C8.30344 15.6528 8.21625 16.4921 8.16013 17.3333C8.10493 18.1597 8.04278 18.9866 8.0335 19.8157C8.03072 20.0819 8.01262 20.3481 8.00381 20.6144C7.96067 21.9018 7.95511 23.1894 8.00381 24.4764C8.03953 25.4375 8.05019 26.3995 8.13183 27.3593C8.17821 27.919 8.20234 28.4815 8.25382 29.0412C8.31968 29.763 8.40363 30.4833 8.47923 31.2042C8.572 32.087 8.69863 32.9634 8.82989 33.8431C9.02888 35.1745 9.27007 36.4981 9.54095 37.8167C10.0621 40.3368 10.7123 42.8287 11.489 45.2824C13.272 50.9347 15.6844 56.3083 18.6691 61.4273C21.9261 67.0144 25.7944 72.1477 30.2073 76.8755C32.7465 79.5927 35.4434 82.1589 38.284 84.5606C40.953 86.8182 43.7382 88.9352 46.6282 90.9032C46.7261 90.9699 46.8235 91.0375 46.9246 91.0991C46.9497 91.1156 46.9789 91.1248 47.009 91.1254C47.039 91.1261 47.0686 91.1182 47.0944 91.1028C47.2071 91.0324 47.3175 90.9574 47.4274 90.8824C51.8771 87.8569 56.0715 84.4734 59.9689 80.7657C64.1749 76.7597 67.9801 72.4065 71.3378 67.6667C75.4751 61.8268 78.8226 55.569 81.3143 48.8593C82.4119 45.9059 83.3239 42.8871 84.0448 39.8204C84.3231 38.625 84.5829 37.425 84.8027 36.2176C84.9725 35.2864 85.1271 34.3525 85.2666 33.4157C85.3835 32.6259 85.4758 31.8319 85.5671 31.0384C85.6515 30.3037 85.7327 29.5681 85.793 28.831C85.8644 27.9611 85.9271 27.0898 85.9651 26.2176C86.0115 25.1681 86.0347 24.1176 86.0537 23.0694C86.0787 21.7074 86.0073 20.3468 85.9711 18.9856C85.9711 18.912 85.9642 18.838 85.9591 18.7644C85.9127 18.1162 85.876 17.4648 85.8241 16.8157C85.7601 16.0194 85.6849 15.2241 85.6135 14.4282C85.5922 14.1926 85.5625 13.9579 85.5333 13.7227C85.5002 13.4588 85.4651 13.1949 85.428 12.931C85.4245 12.9015 85.4125 12.8735 85.3934 12.8507C85.3743 12.8278 85.3489 12.811 85.3204 12.8023C85.2364 12.7745 85.1506 12.7505 85.0643 12.7292C84.1733 12.5111 83.2837 12.2861 82.3904 12.0787C81.2657 11.8176 80.1394 11.5648 79.0114 11.3204C78.2159 11.1481 77.4167 10.9912 76.618 10.8338C75.9068 10.6937 75.1942 10.5582 74.4802 10.4273C73.8977 10.3204 73.3137 10.2231 72.7297 10.1236C72.2775 10.0463 71.8248 9.96945 71.3717 9.89676C70.9035 9.82176 70.4352 9.74969 69.9667 9.68055C69.4686 9.60648 68.9701 9.53441 68.4713 9.46435C67.9435 9.38935 67.4156 9.31481 66.8869 9.24398C66.4759 9.18904 66.0645 9.13673 65.6526 9.08704C65.2997 9.04491 64.9462 9.00695 64.5928 8.96806L63.4884 8.84722C63.0761 8.80092 62.6642 8.75231 62.2509 8.71204C61.8089 8.66852 61.3655 8.63333 60.9225 8.59583L58.8849 8.42454C58.8112 8.41805 58.7374 8.41111 58.6632 8.40555C58.0426 8.35926 57.4225 8.30556 56.8009 8.26667C56.0171 8.22037 55.2318 8.18472 54.4475 8.14444C54.4011 8.14213 54.3584 8.1375 54.3143 8.13565C53.9145 8.11713 53.5147 8.09722 53.1149 8.08102C52.774 8.06713 52.433 8.0588 52.0945 8.0463C51.709 8.03241 51.324 8.0088 50.9386 8.0037C49.6325 7.98657 48.3258 7.975 47.0568 7.96296Z" fill="#B71C1C"/>
<path d="M51.0096 25.2204C51.0096 26.9373 51.0096 28.6542 51.0096 30.3708C51.0096 30.5042 51.0096 30.6375 51.0096 30.7704C51.0059 30.8149 51.0168 30.8594 51.0408 30.8972C51.0647 30.9349 51.1003 30.9639 51.1422 30.9796C51.2377 31.0185 51.3356 31.0537 51.4312 31.0935C53.0874 31.7816 54.5607 32.8445 55.7348 34.1984C56.9088 35.5523 57.7514 37.1602 58.1961 38.8949C58.4786 40.0161 58.5892 41.1735 58.524 42.3278C58.4401 43.9792 58.0264 45.5431 57.2485 46.9991C55.6687 49.9569 53.2512 51.8995 50.0216 52.8185C49.0931 53.0796 48.1328 53.2113 47.1681 53.2097C46.5443 53.2097 45.9223 53.1884 45.3063 53.0926C44.0451 52.9011 42.8242 52.5028 41.6931 51.9139C40.2565 51.1637 38.9937 50.1209 37.9865 48.8529C36.9792 47.5849 36.2498 46.1199 35.8456 44.5528C35.6767 43.8779 35.567 43.1897 35.5177 42.4958C35.4651 41.7874 35.4817 41.0756 35.5673 40.3704C35.7278 38.9401 36.1656 37.5546 36.8563 36.2912C38.1782 33.8795 40.1096 32.141 42.6504 31.0759C43.0498 30.9079 43.0266 30.9889 43.0266 30.5431C43.0266 28.6042 43.0266 26.6653 43.0266 24.7264C43.0266 24.6093 43.0122 24.4921 43.0039 24.375C43.0048 24.3671 43.0038 24.3591 43.0007 24.3518C42.9977 24.3444 42.9928 24.338 42.9866 24.333C42.9804 24.3281 42.9729 24.3249 42.9651 24.3236C42.9572 24.3224 42.9492 24.3232 42.9417 24.3259C42.8247 24.3376 42.7085 24.3553 42.5934 24.3792C39.9398 25.0497 37.4777 26.3238 35.3994 28.1018C32.8483 30.2768 31.0412 32.9546 29.9782 36.1352C29.6705 37.063 29.4424 38.0151 29.2963 38.9815C29.144 39.9305 29.0736 40.8908 29.0857 41.8519C29.1785 46.688 30.9072 50.8523 34.3024 54.3056C36.4824 56.5255 39.0938 58.0519 42.0887 58.9153C42.8865 59.1404 43.6985 59.3122 44.5192 59.4296C45.6982 59.6046 46.8819 59.6269 48.0679 59.5759C48.5406 59.5556 49.0123 59.4986 49.4826 59.4333C50.0985 59.3476 50.7095 59.2303 51.3133 59.0819C53.7545 58.4912 56.0399 57.3833 58.0143 55.8333C60.9689 53.5213 63.0133 50.5761 64.1475 46.9977C64.4832 45.9246 64.7136 44.8214 64.8354 43.7037C64.9664 42.5401 64.9829 41.3664 64.8845 40.1995C64.7056 38.0264 64.1236 35.9054 63.1684 33.9444C62.068 31.6711 60.4985 29.6556 58.563 28.0301C58.4841 27.9634 58.4021 27.8991 58.3251 27.8301C57.4438 27.0338 56.9911 26.0458 56.9656 24.8537C56.9312 23.256 57.9763 21.5204 59.8761 21.0005C61.1039 20.6648 62.2541 20.8755 63.2982 21.6143C63.4068 21.6912 63.5097 21.7768 63.6118 21.8625C67.0506 24.7508 69.5851 28.2847 71.2153 32.4643C71.8065 33.9974 72.2469 35.5842 72.5303 37.2023C72.6745 38.0181 72.7729 38.8403 72.8415 39.6667C72.9143 40.5389 72.9208 41.4111 72.9139 42.2843C72.9006 43.0684 72.8473 43.8514 72.7543 44.6301C72.5895 46.1156 72.2925 47.5834 71.8665 49.0162C70.8082 52.6223 68.9653 55.9508 66.4694 58.7639C63.4171 62.2232 59.7039 64.7031 55.3296 66.2037C54.1245 66.614 52.89 66.9327 51.6366 67.1569C50.8634 67.2958 50.0856 67.4088 49.3036 67.4727C48.0624 67.5736 46.8184 67.6241 45.5721 67.5296C45.0549 67.4903 44.5368 67.4593 44.0215 67.4005C43.5656 67.3486 43.1092 67.2894 42.6578 67.2083C41.7984 67.0537 40.9459 66.8676 40.1031 66.6343C36.8364 65.7383 33.7816 64.2007 31.1178 62.1116C27.2309 59.0727 24.4233 55.2421 22.6951 50.6199C22.1391 49.1214 21.7275 47.5733 21.466 45.9968C21.2135 44.478 21.0956 42.9399 21.1135 41.4005C21.1213 40.6134 21.1598 39.8315 21.241 39.0519C21.577 35.7907 22.5352 32.6238 24.0639 29.7222C26.8918 24.3529 31.5101 20.1384 37.1207 17.8069C38.6533 17.1739 40.2429 16.6882 41.8679 16.3565C42.6078 16.2042 43.3554 16.0912 44.1059 16.0051C45.0346 15.9049 45.9678 15.8515 46.9019 15.8449C47.5628 15.8356 48.2006 15.9593 48.792 16.2616C49.9121 16.8375 50.6199 17.7431 50.9112 18.9657C50.9827 19.2838 51.0164 19.6092 51.0114 19.9352C51.0074 21.6975 51.0068 23.4593 51.0096 25.2204ZM47.0345 38.1727C45.1792 38.1301 43.4941 39.6542 43.4663 41.669C43.4408 43.5144 44.9042 45.237 46.9997 45.2495C47.4682 45.254 47.9329 45.1655 48.3667 44.9891C48.8006 44.8127 49.195 44.552 49.527 44.2221C49.859 43.8922 50.1219 43.4997 50.3005 43.0674C50.4792 42.6352 50.5699 42.1718 50.5675 41.7042C50.5596 39.6134 48.8231 38.144 47.0345 38.1727Z" fill="#B71C1C"/>
</g>
<defs>
<clipPath id="clip0_3429_1008">
<rect width="94" height="100" fill="white"/>
</clipPath>
</defs>
</svg>
