<svg width="200" height="60" viewBox="0 0 200 60" fill="none" xmlns="http://www.w3.org/2000/svg">
<g clip-path="url(#clip0_3923_925)">
<path d="M26.6122 0H29.9217C30.0261 0.0228821 30.1327 0.0337857 30.2395 0.0324995C30.6044 0.0388884 30.9689 0.043056 31.3335 0.0525004C31.6446 0.0608337 31.9558 0.0749999 32.2666 0.0866665C32.4 0.0919443 32.5335 0.0972217 32.6666 0.103611L34.0792 0.172501C34.1056 0.172501 34.1324 0.176388 34.1591 0.178333C34.5403 0.206111 34.9217 0.233888 35.3031 0.261666C35.6312 0.285 35.9593 0.308241 36.2875 0.331389C36.3231 0.333889 36.3582 0.339722 36.3935 0.343055L37.2969 0.426388C37.5535 0.449999 37.8103 0.472223 38.0669 0.498611C38.3054 0.523334 38.5436 0.554167 38.7821 0.580278C39.162 0.622223 39.5422 0.661944 39.9232 0.704722C40.0901 0.723611 40.2571 0.746945 40.4258 0.769167C40.6284 0.796944 40.8307 0.824722 41.0333 0.8525C41.3503 0.895 41.6678 0.935833 41.9845 0.980277C42.2837 1.02305 42.5817 1.07167 42.8803 1.11695C43.1614 1.15972 43.4431 1.19861 43.7236 1.24472C44.0918 1.30528 44.4591 1.37056 44.8268 1.43472C45.272 1.51278 45.7198 1.5875 46.1651 1.67139C46.6624 1.76556 47.1578 1.86972 47.6545 1.96722C48.4391 2.12083 49.2194 2.29361 49.9984 2.47194C50.9935 2.69954 51.9847 2.94389 52.972 3.205C53.3413 3.30222 53.7111 3.39944 54.076 3.50889C54.9573 3.77667 55.5788 4.47278 55.7458 5.37472C55.7911 5.61889 55.8276 5.865 55.8621 6.11111C55.9247 6.55917 55.9829 7.00806 56.0424 7.45667C56.1035 7.91444 56.1536 8.37324 56.193 8.83306C56.2166 9.10722 56.2442 9.38111 56.2648 9.65556C56.2968 10.0803 56.3355 10.5047 56.3438 10.9311C56.351 11.3128 56.3566 11.6947 56.3636 12.0764C56.365 12.1564 56.3572 12.2392 56.3761 12.3153C56.4023 12.4208 56.3984 12.5253 56.4003 12.6311V14.4428C56.4062 14.5736 56.3805 14.7028 56.3744 14.8317C56.3605 15.1275 56.3647 15.4244 56.3613 15.7206C56.3566 15.8181 56.3469 15.915 56.3474 16.0128C56.3497 16.4572 56.3029 16.8994 56.2762 17.3425C56.2575 17.6525 56.2233 17.9617 56.1927 18.2708C56.1518 18.6858 56.1137 19.1017 56.063 19.5156C56.0074 19.9736 55.9375 20.43 55.8752 20.8872C55.7947 21.4767 55.6937 22.0628 55.5846 22.6469C55.4199 23.5281 55.2323 24.4044 55.0219 25.2758C54.5519 27.2167 53.9672 29.1281 53.2709 31C51.9113 34.658 50.1679 38.1243 48.0408 41.3989C45.7897 44.8822 43.1748 48.0714 40.2337 50.9953C37.3129 53.8992 34.1383 56.4933 30.7099 58.7778C30.3186 59.0397 29.9231 59.2956 29.5282 59.5519C29.2613 59.7299 28.9599 59.8498 28.6435 59.9039C28.5734 59.9161 28.5041 59.9328 28.4362 59.9539C28.4129 59.9652 28.3919 59.9804 28.3738 59.9989H28.0535C28.0428 59.9848 28.0294 59.973 28.0142 59.9641C27.9989 59.9551 27.982 59.9493 27.9644 59.9469C27.8428 59.9208 27.7204 59.8981 27.6002 59.8672C27.3344 59.7949 27.0819 59.6802 26.8526 59.5278C25.7378 58.8133 24.6454 58.0662 23.5754 57.2864C20.1618 54.7958 17.0154 52.0069 14.1662 48.8861C11.5463 46.0167 9.23253 42.9203 7.25217 39.5775C5.54278 36.6986 4.10967 33.6649 2.97196 30.5169C2.31642 28.6973 1.76569 26.8416 1.32249 24.9592C1.14327 24.1999 0.982787 23.436 0.841041 22.6675C0.73167 22.0744 0.631479 21.4794 0.545207 20.8822C0.470345 20.3642 0.396321 19.8461 0.340105 19.3267C0.319233 19.1322 0.296411 18.9378 0.276096 18.7433C0.248266 18.4697 0.21654 18.1964 0.192607 17.9222C0.164777 17.5861 0.143066 17.2494 0.118854 16.9133C0.0712648 16.2581 0.0353667 15.6022 0.0236782 14.9453C0.0214518 14.8033 0.0192235 14.6611 0.0147708 14.5192C0.0133793 14.4753 0.00475723 14.4317 -0.000808716 14.3878C0.00253085 14.3083 0.00809191 14.2286 0.00809191 14.1492C0.00809191 13.8383 0.00141766 13.5278 0.00614872 13.2172C0.0150542 12.6311 0.0197831 12.0447 0.0456648 11.4594C0.0759992 10.7764 0.10995 10.0933 0.176742 9.41278C0.221826 8.95333 0.260234 8.49333 0.305318 8.03361C0.322294 7.85695 0.344279 7.68083 0.367378 7.50583C0.411349 7.1725 0.455317 6.83694 0.503741 6.50333C0.5594 6.12556 0.611163 5.7475 0.676562 5.37167C0.737364 5.02041 0.878187 4.68778 1.08817 4.39944C1.42379 3.93472 1.87324 3.63222 2.42232 3.47972C2.9099 3.34417 3.40026 3.21861 3.89006 3.09083C4.80065 2.85324 5.71523 2.63102 6.6338 2.42417C7.24883 2.28546 7.86517 2.15241 8.4828 2.025C9.04802 1.90778 9.61519 1.79889 10.1821 1.68944C10.6182 1.60611 11.0546 1.52278 11.4923 1.44667C11.9654 1.365 12.4385 1.29056 12.9116 1.21556C13.4382 1.13222 13.9647 1.04694 14.4924 0.970834C14.9496 0.904723 15.4088 0.850277 15.8671 0.790833L16.3695 0.726112C16.5813 0.698334 16.7928 0.670556 17.0045 0.646111C17.2252 0.620834 17.4468 0.600833 17.6677 0.577499C17.8625 0.557222 18.0573 0.535278 18.2521 0.514445C18.5087 0.486667 18.7648 0.457222 19.0214 0.433333C19.3047 0.406944 19.5888 0.389444 19.8721 0.362222C20.306 0.320555 20.7401 0.282779 21.1754 0.259445C21.2196 0.256945 21.2639 0.251945 21.3084 0.24889C21.698 0.221112 22.0876 0.18889 22.4795 0.167501C22.9946 0.139723 23.5092 0.118888 24.0254 0.0949995C24.0786 0.0924995 24.132 0.0880563 24.1852 0.0858341C24.4518 0.0750007 24.7184 0.0619442 24.9853 0.0552775C25.2786 0.0477775 25.5725 0.0472222 25.8658 0.0416667C26.1157 0.0355556 26.3648 0.0322222 26.6122 0ZM28.2341 4.77778C27.4577 4.78611 26.7015 4.79306 25.9454 4.8025C25.7506 4.805 25.5541 4.81222 25.3588 4.82056C24.7367 4.8463 24.1146 4.87296 23.4925 4.90056H23.4647C23.0379 4.92333 22.6112 4.9463 22.1845 4.96945C22.1491 4.97139 22.1138 4.97611 22.0782 4.97889C21.7147 5.00611 21.3512 5.03343 20.9875 5.06083C20.6861 5.08389 20.3847 5.10639 20.0833 5.13139C19.8796 5.14806 19.6759 5.1675 19.4725 5.18694C19.2162 5.21278 18.9599 5.2425 18.7035 5.26861C18.4648 5.29306 18.2254 5.31361 17.9869 5.33889C17.8013 5.35861 17.616 5.3825 17.4303 5.40528C17.2099 5.43306 16.9895 5.46083 16.7688 5.48667C16.574 5.51056 16.3792 5.53139 16.1866 5.55778C15.8607 5.60222 15.5354 5.65028 15.2101 5.69667C14.9109 5.73917 14.6112 5.7775 14.3126 5.82361C13.9174 5.88472 13.5233 5.95139 13.1287 6.01639C12.7694 6.07583 12.4093 6.13139 12.0511 6.19667C11.5268 6.29222 11.0032 6.39157 10.4804 6.49472C9.8356 6.62222 9.19051 6.74806 8.54848 6.88917C7.79402 7.05583 7.04261 7.23389 6.29065 7.41083C5.97089 7.48583 5.65308 7.56944 5.33526 7.65139C5.17914 7.69167 5.1655 7.67583 5.14658 7.85611C5.1104 8.20028 5.06531 8.54361 5.03164 8.88806C4.9821 9.39167 4.92978 9.89528 4.89611 10.4C4.86299 10.8958 4.8257 11.3919 4.82013 11.8894C4.81846 12.0492 4.80761 12.2089 4.80232 12.3686C4.77644 13.1411 4.7731 13.9136 4.80232 14.6858C4.82375 15.2625 4.83015 15.8397 4.87913 16.4156C4.90696 16.7514 4.92143 17.0889 4.95233 17.4247C4.99184 17.8578 5.04221 18.29 5.08757 18.7225C5.14323 19.2522 5.21921 19.7781 5.29797 20.3058C5.41736 21.1047 5.56207 21.8989 5.7246 22.69C6.03726 24.2021 6.42739 25.6972 6.89345 27.1694C7.96322 30.5608 9.41065 33.785 11.2015 36.8564C13.1557 40.2086 15.4767 43.2886 18.1244 46.1253C19.6479 47.7556 21.2661 49.2953 22.9704 50.7364C24.5719 52.0909 26.243 53.3611 27.977 54.5419C28.0357 54.5819 28.0941 54.6225 28.1548 54.6594C28.1698 54.6694 28.1874 54.6749 28.2054 54.6753C28.2234 54.6756 28.2412 54.6709 28.2567 54.6617C28.3243 54.6194 28.3905 54.5744 28.4565 54.5294C31.1263 52.7141 33.6429 50.684 35.9814 48.4594C38.505 46.0558 40.7881 43.4439 42.8027 40.6C45.2851 37.0961 47.2936 33.3414 48.7886 29.3156C49.4472 27.5435 49.9943 25.7322 50.4269 23.8922C50.5939 23.175 50.7498 22.455 50.8817 21.7306C50.9835 21.1719 51.0763 20.6115 51.16 20.0494C51.2301 19.5756 51.2855 19.0992 51.3403 18.6231C51.391 18.1822 51.4397 17.7408 51.4758 17.2986C51.5187 16.7767 51.5563 16.2539 51.5791 15.7306C51.6069 15.1008 51.6208 14.4706 51.6322 13.8417C51.6473 13.0244 51.6044 12.2081 51.5827 11.3914C51.5827 11.3472 51.5785 11.3028 51.5755 11.2586C51.5476 10.8697 51.5257 10.4789 51.4945 10.0894C51.4561 9.61167 51.411 9.13445 51.3681 8.65695C51.3553 8.51556 51.3375 8.37472 51.32 8.23361C51.3001 8.07528 51.2791 7.91694 51.2568 7.75861C51.2547 7.74087 51.2475 7.72412 51.236 7.71041C51.2246 7.69669 51.2094 7.68661 51.1922 7.68139C51.1419 7.66472 51.0904 7.65028 51.0386 7.6375C50.504 7.50667 49.9702 7.37167 49.4342 7.24722C48.7595 7.09056 48.0837 6.93889 47.4069 6.79222C46.9296 6.68889 46.4501 6.59472 45.9708 6.50028C45.5441 6.4162 45.1166 6.33491 44.6882 6.25639C44.3386 6.19222 43.9882 6.13389 43.6379 6.07417C43.3665 6.02778 43.0949 5.98167 42.823 5.93806C42.5421 5.89306 42.2611 5.84981 41.9801 5.80833C41.6812 5.76389 41.3821 5.72065 41.0828 5.67861C40.7661 5.63361 40.4494 5.58889 40.1322 5.54639C39.8856 5.51343 39.6387 5.48204 39.3916 5.45222C39.1798 5.42695 38.9678 5.40417 38.7557 5.38083L38.0931 5.30833C37.8457 5.28055 37.5985 5.25139 37.3506 5.22722C37.0854 5.20111 36.8193 5.18 36.5535 5.1575L35.331 5.05472C35.2867 5.05083 35.2425 5.04667 35.198 5.04333C34.8256 5.01556 34.4535 4.98333 34.0806 4.96C33.6103 4.93222 33.1391 4.91083 32.6685 4.88667C32.6407 4.88528 32.6151 4.8825 32.5886 4.88139C32.3487 4.87028 32.1088 4.85833 31.869 4.84861C31.6644 4.84028 31.4599 4.83528 31.2567 4.82778C31.0254 4.81944 30.7945 4.80528 30.5632 4.80222C29.7795 4.79194 28.9955 4.785 28.2341 4.77778Z" fill="#B71C1C"/>
<path d="M30.6057 15.1322C30.6057 16.1623 30.6057 17.1924 30.6057 18.2224C30.6057 18.3024 30.6057 18.3824 30.6057 18.4622C30.6035 18.4889 30.6101 18.5156 30.6245 18.5382C30.6388 18.5609 30.6602 18.5783 30.6853 18.5877C30.7427 18.611 30.8014 18.6322 30.8587 18.656C31.8525 19.0689 32.7364 19.7066 33.4409 20.519C34.1453 21.3313 34.6509 22.296 34.9177 23.3369C35.0872 24.0096 35.1535 24.704 35.1144 25.3966C35.0641 26.3874 34.8158 27.3258 34.3491 28.1994C33.4012 29.9741 31.9508 31.1397 30.013 31.691C29.4558 31.8477 28.8797 31.9267 28.3009 31.9258C27.9266 31.9258 27.5534 31.913 27.1838 31.8555C26.4271 31.7406 25.6945 31.5016 25.0159 31.1483C24.1539 30.6982 23.3963 30.0725 22.7919 29.3117C22.1875 28.5509 21.7499 27.6719 21.5074 26.7316C21.406 26.3267 21.3402 25.9137 21.3106 25.4974C21.2791 25.0724 21.289 24.6453 21.3404 24.2222C21.4367 23.364 21.6994 22.5327 22.1138 21.7747C22.9069 20.3276 24.0658 19.2846 25.5903 18.6455C25.8299 18.5447 25.816 18.5933 25.816 18.3258C25.816 17.1624 25.816 15.9991 25.816 14.8358C25.816 14.7655 25.8073 14.6952 25.8023 14.6249C25.8029 14.6202 25.8023 14.6154 25.8005 14.611C25.7986 14.6066 25.7957 14.6027 25.792 14.5998C25.7882 14.5968 25.7838 14.5948 25.7791 14.5941C25.7743 14.5934 25.7695 14.5938 25.765 14.5955C25.6949 14.6025 25.6251 14.6131 25.556 14.6274C23.9639 15.0297 22.4866 15.7942 21.2396 16.861C19.709 18.166 18.6248 19.7727 17.9869 21.681C17.8023 22.2377 17.6655 22.809 17.5778 23.3888C17.4864 23.9582 17.4442 24.5344 17.4515 25.111C17.5071 28.0127 18.5443 30.5113 20.5815 32.5833C21.8895 33.9152 23.4563 34.831 25.2532 35.3491C25.7319 35.4842 26.2191 35.5873 26.7115 35.6577C27.419 35.7627 28.1292 35.776 28.8408 35.7455C29.1244 35.7333 29.4074 35.6991 29.6896 35.6599C30.0591 35.6085 30.4257 35.5381 30.788 35.4491C32.2527 35.0947 33.6239 34.4299 34.8086 33.4999C36.5813 32.1127 37.808 30.3456 38.4885 28.1985C38.69 27.5547 38.8282 26.8928 38.9012 26.2222C38.9798 25.524 38.9897 24.8198 38.9307 24.1197C38.8234 22.8158 38.4742 21.5432 37.901 20.3666C37.2408 19.0026 36.2991 17.7933 35.1378 16.818C35.0905 16.778 35.0412 16.7394 34.995 16.698C34.4663 16.2202 34.1947 15.6274 34.1794 14.9122C34.1588 13.9535 34.7858 12.9122 35.9257 12.6002C36.6623 12.3988 37.3525 12.5252 37.9789 12.9685C38.0441 13.0147 38.1059 13.066 38.1671 13.1174C40.2304 14.8504 41.7511 16.9708 42.7292 19.4785C43.0839 20.3984 43.3482 21.3504 43.5182 22.3213C43.6047 22.8108 43.6637 23.3041 43.7049 23.7999C43.7486 24.3233 43.7525 24.8466 43.7483 25.3705C43.7404 25.841 43.7084 26.3108 43.6526 26.778C43.5537 27.6693 43.3755 28.55 43.1199 29.4097C42.4849 31.5733 41.3792 33.5704 39.8817 35.2583C38.0503 37.3338 35.8223 38.8218 33.1978 39.7222C32.4747 39.9683 31.734 40.1595 30.982 40.2941C30.5181 40.3774 30.0514 40.4452 29.5822 40.4835C28.8374 40.5441 28.091 40.5744 27.3433 40.5177C27.033 40.4941 26.7221 40.4755 26.4129 40.4402C26.1393 40.4091 25.8655 40.3735 25.5947 40.3249C25.079 40.2322 24.5675 40.1205 24.0619 39.9805C22.1018 39.4429 20.269 38.5204 18.6707 37.2669C16.3386 35.4435 14.654 33.1452 13.6171 30.3719C13.2835 29.4728 13.0365 28.5439 12.8796 27.598C12.7281 26.6867 12.6574 25.7639 12.6681 24.8402C12.6728 24.368 12.6959 23.8988 12.7446 23.431C12.9462 21.4744 13.5211 19.5742 14.4383 17.8333C16.1351 14.6117 18.9061 12.083 22.2724 10.6841C23.192 10.3043 24.1458 10.0129 25.1208 9.81383C25.5647 9.72244 26.0133 9.65466 26.4636 9.60299C27.0208 9.54291 27.5807 9.51083 28.1411 9.50688C28.5377 9.50133 28.9204 9.57549 29.2752 9.75688C29.9473 10.1024 30.372 10.6458 30.5467 11.3794C30.5897 11.5702 30.6098 11.7655 30.6068 11.961C30.6044 13.0185 30.6041 14.0755 30.6057 15.1322ZM28.2207 22.9035C27.1075 22.878 26.0965 23.7924 26.0798 25.0013C26.0645 26.1085 26.9425 27.1422 28.1999 27.1497C28.4809 27.1523 28.7597 27.0992 29.02 26.9934C29.2804 26.8876 29.517 26.7311 29.7162 26.5332C29.9154 26.3352 30.0732 26.0997 30.1803 25.8404C30.2875 25.581 30.342 25.303 30.3405 25.0224C30.3358 23.768 29.2938 22.8863 28.2207 22.9035Z" fill="#B71C1C"/>
</g>
<path d="M64.752 37.0001C63.6853 34.8028 62.5867 32.2854 61.456 29.4481C60.3467 26.5894 59.3333 23.5281 58.416 20.2641H62.544C62.7787 21.2028 63.0453 22.2161 63.344 23.3041C63.664 24.3708 63.9947 25.4481 64.336 26.5361C64.6987 27.6028 65.0613 28.6481 65.424 29.6721C65.808 30.6748 66.16 31.5814 66.48 32.3921C66.8 31.5814 67.1413 30.6748 67.504 29.6721C67.8667 28.6481 68.2187 27.6028 68.56 26.5361C68.9227 25.4481 69.264 24.3708 69.584 23.3041C69.904 22.2161 70.1813 21.2028 70.416 20.2641H74.416C73.4987 23.5281 72.4747 26.5894 71.344 29.4481C70.2347 32.2854 69.1467 34.8028 68.08 37.0001H64.752Z" fill="white"/>
<path d="M76.0047 28.7121C76.0047 27.2401 76.2181 25.9494 76.6448 24.8401C77.0928 23.7308 77.6794 22.8134 78.4048 22.0881C79.1301 21.3414 79.9621 20.7868 80.9007 20.4241C81.8394 20.0401 82.7994 19.8481 83.7808 19.8481C86.0848 19.8481 87.8767 20.5628 89.1567 21.9921C90.4581 23.4214 91.1087 25.5548 91.1087 28.3921C91.1087 28.6054 91.0981 28.8508 91.0768 29.1281C91.0768 29.3841 91.0661 29.6188 91.0448 29.8321H80.0047C80.1114 31.1761 80.5808 32.2214 81.4128 32.9681C82.2661 33.6934 83.4928 34.0561 85.0928 34.0561C86.0314 34.0561 86.8848 33.9708 87.6528 33.8001C88.4421 33.6294 89.0608 33.4481 89.5088 33.2561L90.0208 36.4241C89.8074 36.5308 89.5088 36.6481 89.1248 36.7761C88.7621 36.8828 88.3354 36.9788 87.8447 37.0641C87.3754 37.1708 86.8634 37.2561 86.3088 37.3201C85.7541 37.3841 85.1888 37.4161 84.6128 37.4161C83.1408 37.4161 81.8608 37.2028 80.7728 36.7761C79.6848 36.3281 78.7888 35.7201 78.0848 34.9521C77.3808 34.1628 76.8581 33.2454 76.5168 32.2001C76.1754 31.1334 76.0047 29.9708 76.0047 28.7121ZM87.2368 26.9841C87.2368 26.4508 87.1621 25.9494 87.0128 25.4801C86.8634 24.9894 86.6394 24.5734 86.3408 24.2321C86.0634 23.8694 85.7114 23.5921 85.2848 23.4001C84.8794 23.1868 84.3888 23.0801 83.8128 23.0801C83.2154 23.0801 82.6928 23.1974 82.2448 23.4321C81.7968 23.6454 81.4128 23.9334 81.0928 24.2961C80.7941 24.6588 80.5594 25.0748 80.3888 25.5441C80.2181 26.0134 80.1008 26.4934 80.0368 26.9841H87.2368Z" fill="white"/>
<path d="M104.75 23.7521C104.43 23.6454 103.982 23.5388 103.406 23.4321C102.851 23.3041 102.201 23.2401 101.454 23.2401C101.027 23.2401 100.569 23.2828 100.078 23.3681C99.6087 23.4534 99.278 23.5281 99.086 23.5921V37.0001H95.214V21.0641C95.9607 20.7868 96.8887 20.5308 97.998 20.2961C99.1287 20.0401 100.377 19.9121 101.742 19.9121C101.998 19.9121 102.297 19.9334 102.638 19.9761C102.979 19.9974 103.321 20.0401 103.662 20.1041C104.003 20.1468 104.334 20.2108 104.654 20.2961C104.974 20.3601 105.23 20.4241 105.422 20.4881L104.75 23.7521Z" fill="white"/>
<path d="M114.584 14.6001C117.806 14.6001 120.27 15.1868 121.976 16.3601C123.704 17.5334 124.568 19.3681 124.568 21.8641C124.568 23.1654 124.334 24.2854 123.864 25.2241C123.416 26.1414 122.755 26.8988 121.88 27.4961C121.006 28.0721 119.939 28.4988 118.68 28.7761C117.422 29.0534 115.982 29.1921 114.36 29.1921H112.344V37.0001H108.312V15.1441C109.251 14.9308 110.286 14.7921 111.416 14.7281C112.568 14.6428 113.624 14.6001 114.584 14.6001ZM114.872 18.0881C113.848 18.0881 113.006 18.1201 112.344 18.1841V25.7361H114.296C116.238 25.7361 117.731 25.4694 118.776 24.9361C119.822 24.3814 120.344 23.3468 120.344 21.8321C120.344 21.1068 120.206 20.4988 119.928 20.0081C119.651 19.5174 119.267 19.1334 118.776 18.8561C118.286 18.5788 117.699 18.3868 117.016 18.2801C116.355 18.1521 115.64 18.0881 114.872 18.0881Z" fill="white"/>
<path d="M142.631 28.6161C142.631 29.9388 142.439 31.1441 142.055 32.2321C141.671 33.3201 141.127 34.2481 140.423 35.0161C139.719 35.7841 138.866 36.3814 137.863 36.8081C136.882 37.2348 135.794 37.4481 134.599 37.4481C133.405 37.4481 132.317 37.2348 131.335 36.8081C130.354 36.3814 129.511 35.7841 128.807 35.0161C128.103 34.2481 127.549 33.3201 127.143 32.2321C126.759 31.1441 126.567 29.9388 126.567 28.6161C126.567 27.2934 126.759 26.0988 127.143 25.0321C127.549 23.9441 128.103 23.0161 128.807 22.2481C129.533 21.4801 130.386 20.8934 131.367 20.4881C132.349 20.0614 133.426 19.8481 134.599 19.8481C135.773 19.8481 136.85 20.0614 137.831 20.4881C138.834 20.8934 139.687 21.4801 140.391 22.2481C141.095 23.0161 141.639 23.9441 142.023 25.0321C142.429 26.0988 142.631 27.2934 142.631 28.6161ZM138.663 28.6161C138.663 26.9521 138.301 25.6401 137.575 24.6801C136.871 23.6988 135.879 23.2081 134.599 23.2081C133.319 23.2081 132.317 23.6988 131.591 24.6801C130.887 25.6401 130.535 26.9521 130.535 28.6161C130.535 30.3014 130.887 31.6348 131.591 32.6161C132.317 33.5974 133.319 34.0881 134.599 34.0881C135.879 34.0881 136.871 33.5974 137.575 32.6161C138.301 31.6348 138.663 30.3014 138.663 28.6161Z" fill="white"/>
<path d="M156.26 26.4721C155.77 28.3494 155.236 30.1841 154.66 31.9761C154.106 33.7468 153.551 35.4214 152.996 37.0001H149.828C149.402 36.0188 148.954 34.8988 148.484 33.6401C148.015 32.3814 147.546 31.0374 147.076 29.6081C146.607 28.1788 146.138 26.6748 145.669 25.0961C145.199 23.5174 144.741 21.9068 144.293 20.2641H148.389C148.581 21.1601 148.805 22.1308 149.061 23.1761C149.317 24.2001 149.583 25.2561 149.861 26.3441C150.138 27.4108 150.426 28.4561 150.725 29.4801C151.023 30.5041 151.322 31.4428 151.62 32.2961C151.94 31.3148 152.25 30.3014 152.549 29.2561C152.869 28.2108 153.167 27.1654 153.445 26.1201C153.722 25.0748 153.978 24.0614 154.213 23.0801C154.469 22.0774 154.692 21.1388 154.884 20.2641H157.861C158.053 21.1388 158.266 22.0774 158.501 23.0801C158.735 24.0614 158.981 25.0748 159.237 26.1201C159.514 27.1654 159.802 28.2108 160.101 29.2561C160.421 30.3014 160.741 31.3148 161.061 32.2961C161.338 31.4428 161.626 30.5041 161.924 29.4801C162.223 28.4561 162.511 27.4108 162.788 26.3441C163.087 25.2561 163.364 24.2001 163.62 23.1761C163.876 22.1308 164.101 21.1601 164.293 20.2641H168.293C167.845 21.9068 167.386 23.5174 166.917 25.0961C166.447 26.6748 165.978 28.1788 165.508 29.6081C165.039 31.0374 164.57 32.3814 164.101 33.6401C163.631 34.8988 163.173 36.0188 162.725 37.0001H159.589C159.034 35.4214 158.458 33.7468 157.861 31.9761C157.285 30.1841 156.751 28.3494 156.26 26.4721Z" fill="white"/>
<path d="M170.317 28.7121C170.317 27.2401 170.531 25.9494 170.957 24.8401C171.405 23.7308 171.992 22.8134 172.717 22.0881C173.443 21.3414 174.275 20.7868 175.213 20.4241C176.152 20.0401 177.112 19.8481 178.093 19.8481C180.397 19.8481 182.189 20.5628 183.469 21.9921C184.771 23.4214 185.421 25.5548 185.421 28.3921C185.421 28.6054 185.411 28.8508 185.389 29.1281C185.389 29.3841 185.379 29.6188 185.357 29.8321H174.317C174.424 31.1761 174.893 32.2214 175.725 32.9681C176.579 33.6934 177.805 34.0561 179.405 34.0561C180.344 34.0561 181.197 33.9708 181.965 33.8001C182.755 33.6294 183.373 33.4481 183.821 33.2561L184.333 36.4241C184.12 36.5308 183.821 36.6481 183.437 36.7761C183.075 36.8828 182.648 36.9788 182.157 37.0641C181.688 37.1708 181.176 37.2561 180.621 37.3201C180.067 37.3841 179.501 37.4161 178.925 37.4161C177.453 37.4161 176.173 37.2028 175.085 36.7761C173.997 36.3281 173.101 35.7201 172.397 34.9521C171.693 34.1628 171.171 33.2454 170.829 32.2001C170.488 31.1334 170.317 29.9708 170.317 28.7121ZM181.549 26.9841C181.549 26.4508 181.475 25.9494 181.325 25.4801C181.176 24.9894 180.952 24.5734 180.653 24.2321C180.376 23.8694 180.024 23.5921 179.597 23.4001C179.192 23.1868 178.701 23.0801 178.125 23.0801C177.528 23.0801 177.005 23.1974 176.557 23.4321C176.109 23.6454 175.725 23.9334 175.405 24.2961C175.107 24.6588 174.872 25.0748 174.701 25.5441C174.531 26.0134 174.413 26.4934 174.349 26.9841H181.549Z" fill="white"/>
<path d="M199.062 23.7521C198.742 23.6454 198.295 23.5388 197.719 23.4321C197.164 23.3041 196.513 23.2401 195.766 23.2401C195.34 23.2401 194.881 23.2828 194.391 23.3681C193.921 23.4534 193.59 23.5281 193.398 23.5921V37.0001H189.527V21.0641C190.273 20.7868 191.201 20.5308 192.311 20.2961C193.441 20.0401 194.689 19.9121 196.055 19.9121C196.311 19.9121 196.609 19.9334 196.951 19.9761C197.292 19.9974 197.633 20.0401 197.975 20.1041C198.316 20.1468 198.647 20.2108 198.967 20.2961C199.287 20.3601 199.542 20.4241 199.734 20.4881L199.062 23.7521Z" fill="white"/>
<defs>
<clipPath id="clip0_3923_925">
<rect width="56.4" height="60" fill="white"/>
</clipPath>
</defs>
</svg>
